<?xml version="1.0" encoding="UTF-8"?>
<svg id="ART" xmlns="http://www.w3.org/2000/svg" version="1.1" viewBox="0 0 232.5 118.1">
  <defs>
    <style>
      .st0 {
        fill: #ff671d;
      }

      .st1 {
        fill: #fff;
      }

      .st2 {
        fill: #021d49;
      }
    </style>
  </defs>
  <path class="st2" d="M116.2,8.2C56.6,8.2,8.2,31,8.2,59.1s48.3,50.8,108,50.8,108-22.8,108-50.8S175.9,8.2,116.2,8.2ZM69.8,82v-5.2c-3.6,4.1-7.9,6.1-12.8,6.1s-10-2.4-11.9-7.2c-.8-2-1.1-5.4-1.1-10.5v-22.1h9.9v22.2c0,3.4.4,5.8,1.2,7.3,1.2,2.2,3.2,3.3,6.1,3.3s6.3-1.6,7.7-4.8c.7-1.5,1-3.9,1-7.1v-20.9h9.9v38.8h-9.9ZM110.8,31.7c-1.3-.5-2.6-.7-3.9-.7-2.5,0-4.2,1.1-4.8,3.4-.2.8-.4,2.1-.4,4.1v4.6h9v5.3h-9v33.6h-9.8v-33.6h-6.1v-5.3h6.1v-3.7c0-4.5,1-7.8,3-10.1,2.6-2.9,5.9-4.3,10.2-4.3s5.1.6,7.5,1.7l-1.7,5h0ZM133.6,82.9c-5.7,0-10.4-1.9-14.2-5.6-3.8-3.8-5.6-8.6-5.6-14.6s2-10.8,5.9-14.7c3.9-3.9,8.9-5.8,14.9-5.8s8.1,1.1,11.4,3.2l-2.9,5.5c-2.4-1.2-4.9-1.8-7.2-1.8-3.5,0-6.3,1.2-8.4,3.6-2.1,2.4-3.2,5.6-3.2,9.6s1.1,7.5,3.2,10c2.1,2.5,5,3.8,8.4,3.8s5.1-.8,7.9-2.4l2.7,5.5c-3.9,2.5-8.2,3.8-13,3.8h0ZM178.7,82v-5.2c-3.6,4.1-7.9,6.1-12.8,6.1s-10-2.4-11.9-7.2c-.8-2-1.1-5.4-1.1-10.5v-22.1h9.9v22.2c0,3.4.4,5.8,1.2,7.3,1.2,2.2,3.2,3.3,6.1,3.3s6.3-1.6,7.6-4.8c.7-1.5,1-3.9,1-7.1v-20.9h9.9v38.8h-9.9ZM193.7,79.5h-.9v2.4h-.7v-2.4h-.9v-.4h2.5v.4ZM197.7,82h-.7v-2h0l-.9,2h-.4l-.9-2h0v2h-.6v-2.9h.9l.9,1.9.9-1.9h.9v2.9h0Z" />
  <path class="st0" d="M196.1,15.7C174.7,5.6,146.3,0,116.2,0S57.8,5.6,36.4,15.7C12.9,26.7,0,42.1,0,59.1s12.9,32.4,36.4,43.4c21.5,10.1,49.8,15.7,79.9,15.7s58.4-5.6,79.9-15.7c23.4-11,36.4-26.4,36.4-43.4s-12.9-32.4-36.4-43.4ZM193.8,97.5c-20.8,9.8-48.3,15.2-77.5,15.2s-56.8-5.4-77.5-15.2C17.3,87.4,5.5,73.8,5.5,59.1s11.8-28.3,33.2-38.4c20.8-9.8,48.3-15.1,77.5-15.1s56.8,5.4,77.5,15.1c21.4,10.1,33.2,23.7,33.2,38.4s-11.8,28.3-33.2,38.4Z" />
  <g>
    <path class="st1" d="M193.8,20.7c-20.8-9.8-48.3-15.1-77.5-15.1s-56.8,5.4-77.5,15.1C17.3,30.7,5.5,44.4,5.5,59.1s11.8,28.3,33.2,38.4c20.8,9.8,48.3,15.2,77.5,15.2s56.8-5.4,77.5-15.2c21.4-10.1,33.2-23.7,33.2-38.4s-11.8-28.3-33.2-38.4ZM116.2,109.9c-59.7,0-108-22.8-108-50.8S56.6,8.3,116.2,8.3s108,22.8,108,50.8-48.4,50.8-108,50.8Z" />
    <path class="st1" d="M69.8,43.1v20.9c0,3.2-.3,5.5-1,7.1-1.4,3.2-3.9,4.8-7.7,4.8s-4.9-1.1-6.1-3.3c-.8-1.5-1.2-3.9-1.2-7.3v-22.2h-9.9v22.1c0,5,.4,8.5,1.1,10.5,1.8,4.8,5.8,7.2,11.9,7.2s9.2-2.1,12.8-6.1v5.2h9.9v-38.8h-9.9Z" />
    <path class="st1" d="M94.9,29.3c-2,2.3-3,5.7-3,10.1v3.7h-6.1v5.3h6.1v33.6h9.8v-33.6h9v-5.3h-9v-4.6c0-2,.1-3.4.4-4.1.7-2.2,2.3-3.4,4.8-3.4s2.5.2,3.9.7l1.7-5c-2.4-1.1-4.9-1.7-7.5-1.7-4.2,0-7.6,1.4-10.2,4.3h0Z" />
    <path class="st1" d="M135.9,76.1c-3.5,0-6.3-1.3-8.4-3.8-2.1-2.5-3.2-5.9-3.2-10s1.1-7.2,3.2-9.6,4.9-3.6,8.4-3.6,4.8.6,7.2,1.8l2.9-5.5c-3.4-2.1-7.2-3.2-11.4-3.2-6,0-11,1.9-14.9,5.8-3.9,3.9-5.9,8.8-5.9,14.7s1.9,10.8,5.6,14.6c3.8,3.8,8.5,5.6,14.2,5.6s9.1-1.3,13-3.8l-2.7-5.5c-2.8,1.6-5.4,2.4-7.9,2.4h0Z" />
    <path class="st1" d="M178.7,43.1v20.9c0,3.2-.3,5.5-1,7.1-1.4,3.2-3.9,4.8-7.6,4.8s-4.9-1.1-6.1-3.3c-.8-1.5-1.2-3.9-1.2-7.3v-22.2h-9.9v22.1c0,5,.4,8.5,1.1,10.5,1.8,4.8,5.8,7.2,11.9,7.2s9.2-2.1,12.8-6.1v5.2h9.9v-38.8s-9.9,0-9.9,0Z" />
    <polygon class="st1" points="195.9 81 195.1 79.1 194.2 79.1 194.2 82 194.7 82 194.7 80 194.7 80 195.6 82 196 82 197 80 197 80 197 82 197.7 82 197.7 79.1 196.8 79.1 195.9 81" />
    <polygon class="st1" points="191.2 79.5 192.1 79.5 192.1 82 192.8 82 192.8 79.5 193.7 79.5 193.7 79.1 191.2 79.1 191.2 79.5" />
  </g>
</svg>